<svg width="88" height="74" viewBox="0 0 88 74" fill="none" xmlns="http://www.w3.org/2000/svg">
<path d="M5.02358 70.3577H2.45802V68.6058H5.02358C5.4021 68.6058 5.70586 68.5435 5.93484 68.4188C6.1685 68.2942 6.33907 68.1234 6.44655 67.9064C6.55871 67.6848 6.61479 67.4356 6.61479 67.1586C6.61479 66.8724 6.55871 66.6069 6.44655 66.3623C6.33907 66.113 6.1685 65.9122 5.93484 65.7598C5.70586 65.6075 5.4021 65.5313 5.02358 65.5313H3.28517V73.8615H1V63.7794H5.02358C5.83671 63.7794 6.53301 63.9248 7.11248 64.2157C7.69662 64.5065 8.1429 64.9058 8.45133 65.4136C8.76443 65.9168 8.92098 66.4938 8.92098 67.1447C8.92098 67.7956 8.76443 68.3611 8.45133 68.8412C8.1429 69.3213 7.69662 69.6953 7.11248 69.963C6.53301 70.2261 5.83671 70.3577 5.02358 70.3577Z" fill="#313131"/>
<path d="M12.1752 63.7794H16.0936C16.874 63.7794 17.5493 63.8948 18.1194 64.1256C18.6942 64.3565 19.1358 64.6981 19.4443 65.1505C19.7527 65.6029 19.9069 66.1614 19.9069 66.8262C19.9069 67.3802 19.8158 67.851 19.6335 68.2388C19.4513 68.6266 19.1942 68.9474 18.8624 69.2013C18.5353 69.4552 18.1521 69.6606 17.7129 69.8176L16.9698 70.2192H13.6332L13.6192 68.4673H16.1006C16.4418 68.4673 16.7245 68.4073 16.9488 68.2873C17.1731 68.1673 17.3413 67.9987 17.4535 67.7818C17.5703 67.5602 17.6287 67.3017 17.6287 67.0062C17.6287 66.7016 17.5703 66.4384 17.4535 66.2168C17.3367 65.9953 17.1638 65.8268 16.9348 65.7114C16.7105 65.5913 16.4301 65.5313 16.0936 65.5313H14.4603V73.8615H12.1752V63.7794ZM17.825 73.8615L15.5328 69.3813L17.9442 69.3744L20.2714 73.7576V73.8615H17.825Z" fill="#313131"/>
<path d="M31.8321 68.5989V69.049C31.8321 69.8153 31.7246 70.5031 31.5097 71.1125C31.2994 71.7218 30.998 72.2412 30.6054 72.6705C30.2175 73.0998 29.7549 73.4299 29.2175 73.6607C28.6847 73.8869 28.0936 74 27.444 74C26.7945 74 26.201 73.8869 25.6636 73.6607C25.1261 73.4299 24.6588 73.0998 24.2616 72.6705C23.8691 72.2412 23.5653 71.7218 23.3503 71.1125C23.1354 70.5031 23.0279 69.8153 23.0279 69.049V68.5989C23.0279 67.8326 23.1354 67.1447 23.3503 66.5354C23.5653 65.9214 23.8667 65.3997 24.2546 64.9704C24.6471 64.5411 25.1121 64.2133 25.6495 63.9871C26.1869 63.7563 26.7804 63.6409 27.43 63.6409C28.0796 63.6409 28.6731 63.7563 29.2105 63.9871C29.7479 64.2133 30.2105 64.5411 30.5984 64.9704C30.9909 65.3997 31.2947 65.9214 31.5097 66.5354C31.7246 67.1447 31.8321 67.8326 31.8321 68.5989ZM29.5259 69.049V68.585C29.5259 68.0726 29.4792 67.6202 29.3857 67.2278C29.2923 66.8308 29.1567 66.4984 28.9792 66.2307C28.8016 65.9629 28.5819 65.7621 28.3202 65.6283C28.0585 65.4898 27.7618 65.4205 27.43 65.4205C27.0842 65.4205 26.7828 65.4898 26.5258 65.6283C26.2687 65.7621 26.0514 65.9629 25.8738 66.2307C25.7009 66.4984 25.5678 66.8308 25.4743 67.2278C25.3855 67.6202 25.3411 68.0726 25.3411 68.585V69.049C25.3411 69.5568 25.3855 70.0092 25.4743 70.4062C25.5678 70.7986 25.7033 71.1309 25.8809 71.4033C26.0584 71.6757 26.2757 71.8811 26.5328 72.0196C26.7945 72.1581 27.0982 72.2273 27.444 72.2273C27.7758 72.2273 28.0702 72.1581 28.3272 72.0196C28.5889 71.8811 28.8086 71.6757 28.9862 71.4033C29.1637 71.1309 29.2969 70.7986 29.3857 70.4062C29.4792 70.0092 29.5259 69.5568 29.5259 69.049Z" fill="#313131"/>
<path d="M40.3927 71.2025C40.3927 71.0317 40.367 70.8793 40.3156 70.7455C40.2641 70.607 40.1707 70.48 40.0352 70.3646C39.8996 70.2492 39.708 70.1338 39.4604 70.0184C39.2127 69.8984 38.8879 69.776 38.486 69.6514C38.028 69.5037 37.5911 69.3375 37.1752 69.1528C36.764 68.9636 36.3971 68.7443 36.0747 68.495C35.7522 68.2457 35.4975 67.9549 35.3106 67.6225C35.1284 67.2901 35.0372 66.9024 35.0372 66.4592C35.0372 66.0299 35.133 65.6421 35.3246 65.2959C35.5162 64.9497 35.7849 64.6542 36.1307 64.4095C36.4766 64.1603 36.8831 63.971 37.3504 63.8417C37.8178 63.7079 38.3318 63.6409 38.8926 63.6409C39.6403 63.6409 40.2969 63.7725 40.8623 64.0356C41.4324 64.2941 41.8764 64.6588 42.1942 65.1297C42.5119 65.5959 42.6708 66.1384 42.6708 66.757H40.3997C40.3997 66.4846 40.3413 66.2445 40.2244 66.0368C40.1123 65.8245 39.9394 65.6583 39.7057 65.5382C39.4767 65.4182 39.1893 65.3582 38.8435 65.3582C38.507 65.3582 38.2243 65.409 37.9953 65.5105C37.771 65.6075 37.6005 65.7414 37.4836 65.9122C37.3715 66.083 37.3154 66.2699 37.3154 66.4731C37.3154 66.6346 37.3575 66.7823 37.4416 66.9162C37.5304 67.0455 37.6565 67.1678 37.8201 67.2832C37.9883 67.394 38.1939 67.5002 38.4369 67.6017C38.68 67.7033 38.958 67.8002 39.2711 67.8926C39.8179 68.0634 40.3015 68.2526 40.7221 68.4604C41.1474 68.6681 41.5049 68.9036 41.7946 69.1667C42.0843 69.4298 42.3016 69.7276 42.4465 70.06C42.596 70.3923 42.6708 70.7686 42.6708 71.1886C42.6708 71.6364 42.582 72.0334 42.4044 72.3797C42.2315 72.7259 41.9792 73.0213 41.6474 73.266C41.3203 73.5061 40.9277 73.6884 40.4698 73.813C40.0118 73.9377 39.5001 74 38.9346 74C38.4206 74 37.9136 73.9354 37.4135 73.8061C36.9135 73.6722 36.4602 73.4691 36.0536 73.1968C35.6518 72.9244 35.3293 72.5782 35.0863 72.1581C34.848 71.7334 34.7288 71.2302 34.7288 70.6485H37.014C37.014 70.9532 37.0584 71.2117 37.1472 71.4241C37.236 71.6318 37.3621 71.8003 37.5257 71.9296C37.6939 72.0588 37.8972 72.1512 38.1355 72.2066C38.3739 72.2619 38.6402 72.2896 38.9346 72.2896C39.2758 72.2896 39.5515 72.2435 39.7618 72.1512C39.9767 72.0542 40.1356 71.9226 40.2384 71.7565C40.3413 71.5903 40.3927 71.4056 40.3927 71.2025Z" fill="#313131"/>
<path d="M49.9065 70.3577H47.341V68.6058H49.9065C50.2851 68.6058 50.5888 68.5435 50.8178 68.4188C51.0514 68.2942 51.222 68.1234 51.3295 67.9064C51.4417 67.6848 51.4977 67.4356 51.4977 67.1586C51.4977 66.8724 51.4417 66.6069 51.3295 66.3623C51.222 66.113 51.0514 65.9122 50.8178 65.7598C50.5888 65.6075 50.2851 65.5313 49.9065 65.5313H48.1681V73.8615H45.8829V63.7794H49.9065C50.7197 63.7794 51.416 63.9248 51.9954 64.2157C52.5796 64.5065 53.0259 64.9058 53.3343 65.4136C53.6474 65.9168 53.8039 66.4938 53.8039 67.1447C53.8039 67.7956 53.6474 68.3611 53.3343 68.8412C53.0259 69.3213 52.5796 69.6953 51.9954 69.963C51.416 70.2261 50.7197 70.3577 49.9065 70.3577Z" fill="#313131"/>
<path d="M63.9977 72.1165V73.8615H58.5652V72.1165H63.9977ZM59.3433 63.7794V73.8615H57.0581V63.7794H59.3433ZM63.2968 67.8372V69.5268H58.5652V67.8372H63.2968ZM64.0048 63.7794V65.5313H58.5652V63.7794H64.0048Z" fill="#313131"/>
<path d="M66.9856 63.7794H70.904C71.6844 63.7794 72.3597 63.8948 72.9298 64.1256C73.5046 64.3565 73.9462 64.6981 74.2547 65.1505C74.5631 65.6029 74.7173 66.1614 74.7173 66.8262C74.7173 67.3802 74.6262 67.851 74.4439 68.2388C74.2617 68.6266 74.0046 68.9474 73.6728 69.2013C73.3457 69.4552 72.9625 69.6606 72.5233 69.8176L71.7802 70.2192H68.4436L68.4296 68.4673H70.911C71.2522 68.4673 71.5349 68.4073 71.7592 68.2873C71.9835 68.1673 72.1517 67.9987 72.2639 67.7818C72.3807 67.5602 72.4391 67.3017 72.4391 67.0062C72.4391 66.7016 72.3807 66.4384 72.2639 66.2168C72.1471 65.9953 71.9742 65.8268 71.7452 65.7114C71.5209 65.5913 71.2405 65.5313 70.904 65.5313H69.2707V73.8615H66.9856V63.7794ZM72.6354 73.8615L70.3432 69.3813L72.7546 69.3744L75.0818 73.7576V73.8615H72.6354Z" fill="#313131"/>
<path d="M82.3736 65.6975L79.7379 73.8615H77.2985L81.0768 63.7794H82.6189L82.3736 65.6975ZM84.5606 73.8615L81.918 65.6975L81.6446 63.7794H83.2077L87 73.8615H84.5606ZM84.4485 70.1084V71.8534H79.1281V70.1084H84.4485Z" fill="#313131"/>
<path d="M34.0062 53.9052L47.3927 46.5811L52.025 53.9052H34.0062Z" fill="black"/>
<path d="M47.2724 46.7276C45.0735 39.2277 49.3084 16.1618 51.7008 5.56629L35.209 17.4313L29.559 34.4231C25.4055 62.196 39.6373 54.1981 47.2724 46.7276Z" fill="url(#paint0_linear_1484_19905)"/>
<path d="M31.7157 5.56629H51.8723L34.3116 34.8626H14.7658L31.7157 5.56629Z" fill="url(#paint1_linear_1484_19905)"/>
<path d="M24.2333 0H42.8629L31.2576 19.3355H12.628L24.2333 0Z" fill="url(#paint2_linear_1484_19905)"/>
<path d="M62.8668 22.2652C55.3844 38.6711 51.3633 42.2355 47.1385 46.7276C51.2615 67.8209 70.8073 36.7668 74.7775 22.2652H62.8668Z" fill="url(#paint3_linear_1484_19905)"/>
<path d="M33.627 55.6963L47.0413 48.1289L51.6832 55.6963H33.627Z" fill="#7C578B"/>
<path d="M46.9208 48.2802C44.7173 40.5312 48.961 16.6988 51.3583 5.75125L34.8323 18.0105L29.1706 35.5669C25.0085 64.2626 39.2698 55.999 46.9208 48.2802Z" fill="url(#paint4_linear_1484_19905)"/>
<path d="M31.3318 5.75125H51.5302L33.9331 36.021H14.3467L31.3318 5.75125Z" fill="url(#paint5_linear_1484_19905)"/>
<path d="M23.8339 0H42.5021L30.8727 19.978H12.2045L23.8339 0Z" fill="url(#paint6_linear_1484_19905)"/>
<path d="M62.5475 23.005C55.0496 39.956 51.0201 43.6388 46.7866 48.2802C50.9181 70.0744 70.5045 37.9885 74.4829 23.005H62.5475Z" fill="url(#paint7_linear_1484_19905)"/>
<path d="M4.11715 70.2683H1.49193V68.4734H4.11715C4.50448 68.4734 4.8153 68.4096 5.04961 68.2819C5.2887 68.1542 5.46323 67.9792 5.57322 67.7569C5.68798 67.5298 5.74536 67.2745 5.74536 66.9907C5.74536 66.6974 5.68798 66.4255 5.57322 66.1748C5.46323 65.9194 5.2887 65.7137 5.04961 65.5576C4.8153 65.4015 4.50448 65.3235 4.11715 65.3235H2.33831V73.8581H0V63.5286H4.11715C4.94919 63.5286 5.66168 63.6776 6.25463 63.9755C6.85235 64.2735 7.30902 64.6826 7.62462 65.2029C7.945 65.7184 8.10519 66.3096 8.10519 66.9765C8.10519 67.6434 7.945 68.2227 7.62462 68.7146C7.30902 69.2065 6.85235 69.5896 6.25463 69.8639C5.66168 70.1335 4.94919 70.2683 4.11715 70.2683Z" fill="#9BBCCB"/>
<path d="M11.4351 63.5286H15.4446C16.2432 63.5286 16.9342 63.6468 17.5175 63.8833C18.1057 64.1198 18.5576 64.4698 18.8732 64.9333C19.1888 65.3968 19.3466 65.9691 19.3466 66.6501C19.3466 67.2177 19.2533 67.7001 19.0669 68.0974C18.8804 68.4947 18.6174 68.8234 18.2779 69.0835C17.9431 69.3437 17.551 69.5541 17.1015 69.7149L16.3412 70.1264H12.927L12.9126 68.3315H15.4518C15.8009 68.3315 16.0902 68.27 16.3197 68.1471C16.5492 68.0241 16.7214 67.8515 16.8361 67.6292C16.9557 67.4021 17.0155 67.1373 17.0155 66.8346C17.0155 66.5224 16.9557 66.2528 16.8361 66.0258C16.7166 65.7988 16.5397 65.6262 16.3053 65.5079C16.0758 65.385 15.7889 65.3235 15.4446 65.3235H13.7734V73.8581H11.4351V63.5286ZM17.2163 73.8581L14.8708 69.268L17.3382 69.2609L19.7196 73.7517V73.8581H17.2163Z" fill="#9BBCCB"/>
<path d="M31.5491 68.4663V68.9275C31.5491 69.7126 31.4392 70.4173 31.2192 71.0416C31.004 71.6659 30.6956 72.198 30.2939 72.6379C29.897 73.0777 29.4236 73.4159 28.8737 73.6524C28.3286 73.8841 27.7237 74 27.059 74C26.3943 74 25.787 73.8841 25.2371 73.6524C24.6872 73.4159 24.209 73.0777 23.8026 72.6379C23.4009 72.198 23.0901 71.6659 22.8701 71.0416C22.6502 70.4173 22.5402 69.7126 22.5402 68.9275V68.4663C22.5402 67.6812 22.6502 66.9765 22.8701 66.3522C23.0901 65.7231 23.3985 65.1887 23.7954 64.7488C24.1971 64.309 24.6729 63.9732 25.2228 63.7414C25.7727 63.5049 26.38 63.3867 27.0447 63.3867C27.7093 63.3867 28.3166 63.5049 28.8665 63.7414C29.4164 63.9732 29.8898 64.309 30.2867 64.7488C30.6884 65.1887 30.9992 65.7231 31.2192 66.3522C31.4392 66.9765 31.5491 67.6812 31.5491 68.4663ZM29.1893 68.9275V68.4521C29.1893 67.9271 29.1415 67.4636 29.0459 67.0616C28.9502 66.6549 28.8115 66.3143 28.6298 66.04C28.4481 65.7657 28.2234 65.56 27.9556 65.4228C27.6878 65.2809 27.3842 65.21 27.0447 65.21C26.6908 65.21 26.3824 65.2809 26.1194 65.4228C25.8564 65.56 25.634 65.7657 25.4523 66.04C25.2754 66.3143 25.1391 66.6549 25.0435 67.0616C24.9526 67.4636 24.9072 67.9271 24.9072 68.4521V68.9275C24.9072 69.4477 24.9526 69.9112 25.0435 70.318C25.1391 70.72 25.2778 71.0605 25.4595 71.3396C25.6412 71.6186 25.8635 71.8291 26.1265 71.971C26.3943 72.1129 26.7051 72.1838 27.059 72.1838C27.3985 72.1838 27.6998 72.1129 27.9628 71.971C28.2305 71.8291 28.4553 71.6186 28.637 71.3396C28.8187 71.0605 28.955 70.72 29.0459 70.318C29.1415 69.9112 29.1893 69.4477 29.1893 68.9275Z" fill="#9BBCCB"/>
<path d="M40.3088 71.1338C40.3088 70.9588 40.2825 70.8028 40.2299 70.6656C40.1773 70.5237 40.0816 70.3936 39.943 70.2754C39.8043 70.1572 39.6082 70.0389 39.3548 69.9207C39.1014 69.7977 38.769 69.6724 38.3578 69.5447C37.8892 69.3933 37.4421 69.2231 37.0165 69.0339C36.5957 68.84 36.2203 68.6153 35.8904 68.3599C35.5604 68.1045 35.2998 67.8065 35.1085 67.466C34.922 67.1255 34.8288 66.7282 34.8288 66.2741C34.8288 65.8343 34.9268 65.437 35.1229 65.0823C35.3189 64.7275 35.5939 64.4248 35.9477 64.1742C36.3016 63.9188 36.7176 63.7248 37.1958 63.5924C37.674 63.4553 38.2 63.3867 38.7738 63.3867C39.5389 63.3867 40.2107 63.5215 40.7893 63.7911C41.3727 64.0559 41.827 64.4296 42.1522 64.912C42.4773 65.3897 42.6399 65.9454 42.6399 66.5792H40.3159C40.3159 66.3001 40.2562 66.0542 40.1366 65.8414C40.0219 65.6238 39.8449 65.4535 39.6058 65.3306C39.3715 65.2076 39.0774 65.1461 38.7236 65.1461C38.3793 65.1461 38.09 65.1981 37.8557 65.3022C37.6262 65.4015 37.4516 65.5387 37.3321 65.7137C37.2173 65.8887 37.1599 66.0802 37.1599 66.2883C37.1599 66.4539 37.203 66.6052 37.289 66.7424C37.3799 66.8748 37.509 67.0001 37.6764 67.1184C37.8485 67.2319 38.0589 67.3407 38.3076 67.4447C38.5562 67.5488 38.8407 67.6481 39.1611 67.7427C39.7206 67.9177 40.2155 68.1116 40.6459 68.3244C41.081 68.5373 41.4468 68.7785 41.7433 69.0481C42.0398 69.3177 42.2621 69.6227 42.4104 69.9632C42.5634 70.3038 42.6399 70.6893 42.6399 71.1197C42.6399 71.5784 42.5491 71.9852 42.3673 72.3399C42.1904 72.6946 41.9322 72.9973 41.5927 73.248C41.258 73.4939 40.8563 73.6807 40.3877 73.8084C39.9191 73.9361 39.3954 74 38.8168 74C38.2908 74 37.772 73.9338 37.2604 73.8014C36.7487 73.6642 36.2849 73.4561 35.8688 73.177C35.4576 72.898 35.1277 72.5433 34.879 72.1129C34.6351 71.6777 34.5132 71.1622 34.5132 70.5663H36.8515C36.8515 70.8784 36.8969 71.1433 36.9878 71.3609C37.0786 71.5737 37.2078 71.7463 37.3751 71.8788C37.5473 72.0112 37.7553 72.1058 37.9991 72.1625C38.243 72.2193 38.5156 72.2477 38.8168 72.2477C39.1659 72.2477 39.448 72.2004 39.6632 72.1058C39.8832 72.0065 40.0458 71.8717 40.151 71.7014C40.2562 71.5311 40.3088 71.3419 40.3088 71.1338Z" fill="#9BBCCB"/>
<path d="M50.0439 70.2683H47.4187V68.4734H50.0439C50.4312 68.4734 50.742 68.4096 50.9763 68.2819C51.2154 68.1542 51.39 67.9792 51.5 67.7569C51.6147 67.5298 51.6721 67.2745 51.6721 66.9907C51.6721 66.6974 51.6147 66.4255 51.5 66.1748C51.39 65.9194 51.2154 65.7137 50.9763 65.5576C50.742 65.4015 50.4312 65.3235 50.0439 65.3235H48.2651V73.8581H45.9267V63.5286H50.0439C50.8759 63.5286 51.5884 63.6776 52.1814 63.9755C52.7791 64.2735 53.2358 64.6826 53.5514 65.2029C53.8717 65.7184 54.0319 66.3096 54.0319 66.9765C54.0319 67.6434 53.8717 68.2227 53.5514 68.7146C53.2358 69.2065 52.7791 69.5896 52.1814 69.8639C51.5884 70.1335 50.8759 70.2683 50.0439 70.2683Z" fill="#9BBCCB"/>
<path d="M64.4628 72.0703V73.8581H58.9039V72.0703H64.4628ZM59.7001 63.5286V73.8581H57.3618V63.5286H59.7001ZM63.7455 67.6859V69.417H58.9039V67.6859H63.7455ZM64.47 63.5286V65.3235H58.9039V63.5286H64.47Z" fill="#9BBCCB"/>
<path d="M67.5201 63.5286H71.5297C72.3282 63.5286 73.0192 63.6468 73.6026 63.8833C74.1908 64.1198 74.6426 64.4698 74.9583 64.9333C75.2738 65.3968 75.4316 65.9691 75.4316 66.6501C75.4316 67.2177 75.3384 67.7001 75.1519 68.0974C74.9654 68.4947 74.7024 68.8234 74.3629 69.0835C74.0282 69.3437 73.6361 69.5541 73.1866 69.7149L72.4263 70.1264H69.0121L68.9977 68.3315H71.5369C71.8859 68.3315 72.1752 68.27 72.4048 68.1471C72.6343 68.0241 72.8064 67.8515 72.9212 67.6292C73.0407 67.4021 73.1005 67.1373 73.1005 66.8346C73.1005 66.5224 73.0407 66.2528 72.9212 66.0258C72.8016 65.7988 72.6247 65.6262 72.3904 65.5079C72.1609 65.385 71.874 65.3235 71.5297 65.3235H69.8584V73.8581H67.5201V63.5286ZM73.3013 73.8581L70.9559 69.268L73.4233 69.2609L75.8046 73.7517V73.8581H73.3013Z" fill="#9BBCCB"/>
<path d="M83.266 65.4937L80.569 73.8581H78.0729L81.939 63.5286H83.517L83.266 65.4937ZM85.5039 73.8581L82.7998 65.4937L82.52 63.5286H84.1196L88 73.8581H85.5039ZM85.3891 70.0129V71.8007H79.945V70.0129H85.3891Z" fill="#9BBCCB"/>
<defs>
<linearGradient id="paint0_linear_1484_19905" x1="44" y1="0" x2="44" y2="74" gradientUnits="userSpaceOnUse">
<stop stop-color="#B9B9B9"/>
<stop offset="1"/>
</linearGradient>
<linearGradient id="paint1_linear_1484_19905" x1="44" y1="0" x2="44" y2="74" gradientUnits="userSpaceOnUse">
<stop/>
<stop offset="1" stop-color="white"/>
</linearGradient>
<linearGradient id="paint2_linear_1484_19905" x1="34.4444" y1="2.95163e-07" x2="60.6069" y2="70.4116" gradientUnits="userSpaceOnUse">
<stop stop-color="#606060"/>
<stop offset="1" stop-color="#E3E3E3"/>
</linearGradient>
<linearGradient id="paint3_linear_1484_19905" x1="44" y1="0" x2="44" y2="74" gradientUnits="userSpaceOnUse">
<stop/>
<stop offset="1" stop-color="#DFDFDF"/>
</linearGradient>
<linearGradient id="paint4_linear_1484_19905" x1="44" y1="0" x2="44" y2="74" gradientUnits="userSpaceOnUse">
<stop stop-color="#A8C5CB"/>
<stop offset="1" stop-color="#FF7989"/>
</linearGradient>
<linearGradient id="paint5_linear_1484_19905" x1="44" y1="0" x2="44" y2="74" gradientUnits="userSpaceOnUse">
<stop stop-color="#745C8C"/>
<stop offset="1" stop-color="#89517E"/>
</linearGradient>
<linearGradient id="paint6_linear_1484_19905" x1="34.2222" y1="2.95163e-07" x2="59.9302" y2="70.7976" gradientUnits="userSpaceOnUse">
<stop stop-color="#A0C5CE"/>
<stop offset="1" stop-color="#8099BC"/>
</linearGradient>
<linearGradient id="paint7_linear_1484_19905" x1="44" y1="0" x2="44" y2="74" gradientUnits="userSpaceOnUse">
<stop stop-color="#97B7CB"/>
<stop offset="1" stop-color="#7F97BB"/>
</linearGradient>
</defs>
</svg>
