<svg width="24" height="25" viewBox="0 0 24 25" fill="none" xmlns="http://www.w3.org/2000/svg">
<path d="M9 2.5H3C2.73478 2.5 2.48043 2.60536 2.29289 2.79289C2.10536 2.98043 2 3.23478 2 3.5V9.5C2 9.76522 2.10536 10.0196 2.29289 10.2071C2.48043 10.3946 2.73478 10.5 3 10.5H9C9.26522 10.5 9.51957 10.3946 9.70711 10.2071C9.89464 10.0196 10 9.76522 10 9.5V3.5C10 3.23478 9.89464 2.98043 9.70711 2.79289C9.51957 2.60536 9.26522 2.5 9 2.5ZM9 14.5H3C2.73478 14.5 2.48043 14.6054 2.29289 14.7929C2.10536 14.9804 2 15.2348 2 15.5V21.5C2 21.7652 2.10536 22.0196 2.29289 22.2071C2.48043 22.3946 2.73478 22.5 3 22.5H9C9.26522 22.5 9.51957 22.3946 9.70711 22.2071C9.89464 22.0196 10 21.7652 10 21.5V15.5C10 15.2348 9.89464 14.9804 9.70711 14.7929C9.51957 14.6054 9.26522 14.5 9 14.5ZM21 2.5H15C14.7348 2.5 14.4804 2.60536 14.2929 2.79289C14.1054 2.98043 14 3.23478 14 3.5V9.5C14 9.76522 14.1054 10.0196 14.2929 10.2071C14.4804 10.3946 14.7348 10.5 15 10.5H21C21.2652 10.5 21.5196 10.3946 21.7071 10.2071C21.8946 10.0196 22 9.76522 22 9.5V3.5C22 3.23478 21.8946 2.98043 21.7071 2.79289C21.5196 2.60536 21.2652 2.5 21 2.5Z" stroke="white" stroke-width="1.25" stroke-linejoin="round"/>
<path d="M14 14.5H22M18 18.5H22M14 22.5H22" stroke="white" stroke-width="1.25" stroke-linecap="round" stroke-linejoin="round"/>
</svg>
