<svg width="24" height="25" viewBox="0 0 24 25" fill="none" xmlns="http://www.w3.org/2000/svg">
<path d="M3.50001 13.5C3.49789 11.3706 4.29511 9.31797 5.73392 7.7482C7.17274 6.17844 9.14834 5.2059 11.2699 5.02298C13.3914 4.84007 15.5043 5.46012 17.1906 6.76044C18.8768 8.06077 20.0136 9.94666 20.376 12.045C20.7941 12.3104 21.1511 12.6614 21.4235 13.0749C21.6958 13.4885 21.8773 13.9551 21.956 14.444C21.9853 14.1327 22 13.818 22 13.5C22 7.977 17.523 3.5 12 3.5C6.47701 3.5 2.00001 7.977 2.00001 13.5C1.99839 14.812 2.25576 16.1115 2.75735 17.3238C3.25894 18.5362 3.99489 19.6376 4.92301 20.565C5.06439 20.7017 5.25381 20.7774 5.45046 20.7758C5.64711 20.7741 5.83526 20.6954 5.97438 20.5564C6.1135 20.4174 6.19247 20.2293 6.19427 20.0327C6.19607 19.836 6.12056 19.6465 5.98401 19.505C5.19504 18.7169 4.56946 17.7807 4.14319 16.7502C3.71693 15.7197 3.49835 14.6152 3.50001 13.5ZM18.19 11.514C17.889 10.5778 17.3794 9.72202 16.6997 9.01125C16.02 8.30048 15.1879 7.75321 14.2661 7.41066C13.3442 7.0681 12.3566 6.9392 11.3777 7.03365C10.3988 7.1281 9.45412 7.44344 8.61476 7.95593C7.77539 8.46842 7.06326 9.16469 6.53201 9.9923C6.00075 10.8199 5.66421 11.7573 5.54774 12.7338C5.43127 13.7103 5.53791 14.7006 5.85962 15.6299C6.18133 16.5592 6.70972 17.4035 7.40501 18.099C7.47474 18.1687 7.55751 18.2239 7.64859 18.2616C7.73968 18.2993 7.83729 18.3186 7.93586 18.3186C8.03443 18.3185 8.13203 18.2991 8.22307 18.2613C8.31412 18.2236 8.39684 18.1682 8.46651 18.0985C8.53617 18.0288 8.59142 17.946 8.6291 17.8549C8.66678 17.7638 8.68615 17.6662 8.6861 17.5676C8.68606 17.4691 8.66659 17.3715 8.62883 17.2804C8.59107 17.1894 8.53574 17.1067 8.46601 17.037C7.93132 16.5023 7.52488 15.8533 7.27726 15.1388C7.02965 14.4243 6.94732 13.663 7.03647 12.9121C7.12561 12.1612 7.38391 11.4403 7.79193 10.8036C8.19995 10.167 8.74706 9.63115 9.39208 9.2365C10.0371 8.84185 10.7632 8.59864 11.5158 8.52518C12.2684 8.45171 13.0279 8.5499 13.7371 8.81237C14.4462 9.07483 15.0866 9.49472 15.6101 10.0404C16.1335 10.5862 16.5263 11.2435 16.759 11.963C17.1982 11.7112 17.6867 11.5577 18.191 11.513M9.50001 13.5C9.50001 12.837 9.7634 12.2011 10.2322 11.7322C10.7011 11.2634 11.337 11 12 11C12.663 11 13.2989 11.2634 13.7678 11.7322C14.2366 12.2011 14.5 12.837 14.5 13.5C14.5 14.163 14.2366 14.7989 13.7678 15.2678C13.2989 15.7366 12.663 16 12 16C11.337 16 10.7011 15.7366 10.2322 15.2678C9.7634 14.7989 9.50001 14.163 9.50001 13.5ZM12 12.5C11.7348 12.5 11.4804 12.6054 11.2929 12.7929C11.1054 12.9804 11 13.2348 11 13.5C11 13.7652 11.1054 14.0196 11.2929 14.2071C11.4804 14.3946 11.7348 14.5 12 14.5C12.2652 14.5 12.5196 14.3946 12.7071 14.2071C12.8947 14.0196 13 13.7652 13 13.5C13 13.2348 12.8947 12.9804 12.7071 12.7929C12.5196 12.6054 12.2652 12.5 12 12.5ZM21 15C21 15.663 20.7366 16.2989 20.2678 16.7678C19.7989 17.2366 19.163 17.5 18.5 17.5C17.837 17.5 17.2011 17.2366 16.7322 16.7678C16.2634 16.2989 16 15.663 16 15C16 14.337 16.2634 13.7011 16.7322 13.2322C17.2011 12.7634 17.837 12.5 18.5 12.5C19.163 12.5 19.7989 12.7634 20.2678 13.2322C20.7366 13.7011 21 14.337 21 15ZM23 20.375C23 21.931 21.714 23.5 18.5 23.5C15.286 23.5 14 21.937 14 20.375V20.272C14 19.292 14.794 18.5 15.773 18.5H21.227C22.207 18.5 23 19.293 23 20.272V20.375Z" fill="white"/>
</svg>
