<svg width="24" height="25" viewBox="0 0 24 25" fill="none" xmlns="http://www.w3.org/2000/svg">
<path d="M16.0405 12.8523V20.2929C16.0405 21.3449 15.0783 22.1977 13.8712 22.1977H4.47451C3.26488 22.1977 2.30273 21.3449 2.30273 20.2929V8.86383C2.30618 8.35954 2.54142 7.87675 2.95743 7.52016C3.37345 7.16357 3.93669 6.96194 4.52501 6.95898H9.27867C9.44321 6.9592 9.60605 6.98748 9.75771 7.04219C9.90937 7.09689 10.0468 7.17692 10.162 7.27761L15.6748 12.083C15.9093 12.2886 16.0406 12.5648 16.0405 12.8523Z" stroke="white" stroke-width="1.25" stroke-linejoin="round"/>
<path d="M9.17188 6.95898V11.6345C9.17633 11.9548 9.32676 12.2609 9.59101 12.4874C9.85526 12.7139 10.2124 12.8429 10.5861 12.8467H16.0407" stroke="white" stroke-width="1.25" stroke-linecap="round" stroke-linejoin="round"/>
<path d="M7.95947 6.95875V4.70758C7.96292 4.20329 8.19816 3.7205 8.61417 3.36391C9.03018 3.00732 9.59343 2.80569 10.1818 2.80273H14.9293C15.0948 2.80293 15.2585 2.83119 15.4112 2.88587C15.5638 2.94056 15.7024 3.02059 15.8188 3.12136L21.3315 7.92676C21.5659 8.13017 21.6972 8.40455 21.6972 8.69043V16.1366C21.6972 17.1886 20.735 18.0415 19.5279 18.0415H16.4445" stroke="white" stroke-width="1.25" stroke-linejoin="round"/>
<path d="M14.8281 2.80273V7.47825C14.8326 7.79856 14.983 8.10466 15.2473 8.33117C15.5115 8.55767 15.8686 8.68661 16.2423 8.69043H21.697" stroke="white" stroke-width="1.25" stroke-linecap="round" stroke-linejoin="round"/>
</svg>
