<svg width="24" height="25" viewBox="0 0 24 25" fill="none" xmlns="http://www.w3.org/2000/svg">
<path d="M12 3.5C6.5 3.5 2 7.1 2 11.5C2 13.7 3.1 15.7 4.8 17C4.8 17.6 4.4 19.2 2 21.5C4.4 21.4 6.6 20.5 8.5 19C9.6 19.3 10.8 19.5 12 19.5C17.5 19.5 22 15.9 22 11.5C22 7.1 17.5 3.5 12 3.5ZM12 17.5C7.6 17.5 4 14.8 4 11.5C4 8.2 7.6 5.5 12 5.5C16.4 5.5 20 8.2 20 11.5C20 14.8 16.4 17.5 12 17.5ZM12.2 7C11.3 7 10.6 7.2 10.1 7.5C9.5 7.9 9.2 8.5 9.3 9.2H11.3C11.3 8.9 11.4 8.7 11.6 8.6C11.8 8.5 12 8.4 12.3 8.4C12.6 8.4 12.9 8.5 13.1 8.7C13.3 8.9 13.4 9.1 13.4 9.4C13.4 9.7 13.3 9.9 13.2 10.1C13 10.3 12.8 10.5 12.6 10.6C12.1 10.9 11.7 11.2 11.5 11.4C11.1 11.7 11 12 11 12.5H13C13 12.2 13.1 12 13.1 11.8C13.2 11.6 13.4 11.5 13.6 11.3C14.1 11.1 14.4 10.8 14.7 10.4C15 10 15.1 9.6 15.1 9.2C15.1 8.5 14.8 7.9 14.3 7.5C13.9 7.2 13.1 7 12.2 7ZM11 13.5V15.5H13V13.5H11Z" fill="white"/>
</svg>
