<svg width="24" height="25" viewBox="0 0 24 25" fill="none" xmlns="http://www.w3.org/2000/svg">
<path d="M12.0098 17.4993C11.1598 17.4993 10.2998 17.2793 9.62982 16.8493L3.60982 12.9193C2.48982 12.1893 1.81982 10.9593 1.81982 9.6193C1.81982 8.2793 2.48982 7.0493 3.60982 6.3193L9.63982 2.3993C10.9798 1.5293 13.0698 1.5293 14.3998 2.4093L20.3898 6.3393C21.4998 7.0693 22.1698 8.2993 22.1698 9.6293C22.1698 10.9593 21.4998 12.1893 20.3898 12.9193L14.3998 16.8493C13.7298 17.2893 12.8698 17.4993 12.0098 17.4993ZM12.0098 3.2493C11.4398 3.2493 10.8698 3.3793 10.4598 3.6593L4.43982 7.5793C3.73982 8.0393 3.32982 8.7793 3.32982 9.6193C3.32982 10.4593 3.72982 11.1993 4.43982 11.6593L10.4598 15.5893C11.2898 16.1293 12.7498 16.1293 13.5798 15.5893L19.5698 11.6593C20.2698 11.1993 20.6698 10.4593 20.6698 9.6193C20.6698 8.7793 20.2698 8.0393 19.5698 7.5793L13.5798 3.6493C13.1598 3.3893 12.5898 3.2493 12.0098 3.2493Z" fill="white"/>
<path d="M12.0002 23.2501C11.5602 23.2501 11.1102 23.1901 10.7502 23.0701L7.56018 22.0101C6.05018 21.5101 4.86018 19.8601 4.87018 18.2701L4.88018 13.5801C4.88018 13.1701 5.22018 12.8301 5.63018 12.8301C6.04018 12.8301 6.38018 13.1701 6.38018 13.5801L6.37018 18.2701C6.37018 19.2101 7.15018 20.2901 8.04018 20.5901L11.2302 21.6501C11.6302 21.7801 12.3702 21.7801 12.7702 21.6501L15.9602 20.5901C16.8502 20.2901 17.6302 19.2101 17.6302 18.2801V13.6401C17.6302 13.2301 17.9702 12.8901 18.3802 12.8901C18.7902 12.8901 19.1302 13.2301 19.1302 13.6401V18.2801C19.1302 19.8701 17.9502 21.5101 16.4402 22.0201L13.2502 23.0801C12.8902 23.1901 12.4402 23.2501 12.0002 23.2501Z" fill="white"/>
<path d="M21.3999 16.25C20.9899 16.25 20.6499 15.91 20.6499 15.5V9.5C20.6499 9.09 20.9899 8.75 21.3999 8.75C21.8099 8.75 22.1499 9.09 22.1499 9.5V15.5C22.1499 15.91 21.8099 16.25 21.3999 16.25Z" fill="white"/>
</svg>
