<svg width="24" height="25" viewBox="0 0 24 25" fill="none" xmlns="http://www.w3.org/2000/svg">
<g clip-path="url(#clip0_3605_12401)">
<path d="M16.4 5.9C16.4 3.8254 16.4 2.7892 15.7554 2.1446C15.1108 1.5 14.0746 1.5 12 1.5C9.9254 1.5 8.8892 1.5 8.2446 2.1446C7.6 2.7892 7.6 3.8254 7.6 5.9M1 14.7C1 10.5519 1 8.4773 2.2892 7.1892C3.5784 5.9011 5.6519 5.9 9.8 5.9H14.2C18.3481 5.9 20.4227 5.9 21.7108 7.1892C22.9989 8.4784 23 10.5519 23 14.7C23 18.8481 23 20.9227 21.7108 22.2108C20.4216 23.4989 18.3481 23.5 14.2 23.5H9.8C5.6519 23.5 3.5773 23.5 2.2892 22.2108C1.0011 20.9216 1 18.8481 1 14.7Z" stroke="white" stroke-width="1.5"/>
<path d="M11.9998 18.3671C13.2153 18.3671 14.1998 17.5465 14.1998 16.5345C14.1998 15.5225 13.2153 14.7008 11.9998 14.7008C10.7843 14.7008 9.7998 13.8802 9.7998 12.8671C9.7998 11.8551 10.7843 11.0345 11.9998 11.0345M11.9998 18.3671C10.7843 18.3671 9.7998 17.5465 9.7998 16.5345M11.9998 18.3671V19.1008M11.9998 11.0345V10.3008M11.9998 11.0345C13.2153 11.0345 14.1998 11.8551 14.1998 12.8671" stroke="white" stroke-width="1.5" stroke-linecap="round"/>
</g>
<defs>
<clipPath id="clip0_3605_12401">
<rect width="24" height="24" fill="white" transform="translate(0 0.5)"/>
</clipPath>
</defs>
</svg>
