<svg width="24" height="25" viewBox="0 0 24 25" fill="none" xmlns="http://www.w3.org/2000/svg">
<circle cx="12" cy="12.5" r="11.25" stroke="white" stroke-width="1.5"/>
<path d="M11.6164 18.4407V5.71342H12.4317V18.4407H11.6164ZM14.1668 9.66087C14.1138 9.19022 13.895 8.82564 13.5106 8.56712C13.1261 8.30528 12.6422 8.17436 12.0589 8.17436C11.6413 8.17436 11.28 8.24065 10.9751 8.37322C10.6701 8.50249 10.4332 8.68146 10.2641 8.91016C10.0984 9.13553 10.0156 9.3924 10.0156 9.68075C10.0156 9.9227 10.0719 10.1315 10.1846 10.3072C10.3006 10.4828 10.4514 10.6303 10.637 10.7496C10.8259 10.8656 11.0281 10.9634 11.2435 11.043C11.459 11.1192 11.6661 11.1822 11.865 11.2319L12.8593 11.4904C13.1841 11.57 13.5172 11.6777 13.8586 11.8136C14.2 11.9495 14.5165 12.1284 14.8082 12.3505C15.0998 12.5726 15.3352 12.8477 15.5141 13.1758C15.6964 13.5039 15.7876 13.8967 15.7876 14.354C15.7876 14.9308 15.6384 15.4428 15.3401 15.8903C15.0451 16.3377 14.6159 16.6907 14.0525 16.9492C13.4924 17.2077 12.8146 17.337 12.0191 17.337C11.2568 17.337 10.5972 17.216 10.0404 16.9741C9.48359 16.7321 9.04775 16.3891 8.73288 15.945C8.41801 15.4975 8.24401 14.9672 8.21086 14.354H9.75206C9.78189 14.7219 9.9012 15.0285 10.11 15.2738C10.3221 15.5157 10.5923 15.6964 10.9204 15.8157C11.2518 15.9317 11.6147 15.9897 12.0092 15.9897C12.4433 15.9897 12.8295 15.9218 13.1675 15.7859C13.5089 15.6467 13.7774 15.4544 13.9729 15.2092C14.1685 14.9606 14.2663 14.6706 14.2663 14.3391C14.2663 14.0375 14.1801 13.7906 14.0077 13.5984C13.8387 13.4061 13.6084 13.247 13.3167 13.1211C13.0283 12.9951 12.7019 12.8841 12.3373 12.788L11.1342 12.4599C10.3188 12.2378 9.67251 11.9113 9.19524 11.4805C8.72128 11.0496 8.4843 10.4795 8.4843 9.77024C8.4843 9.18359 8.64339 8.67152 8.96157 8.23402C9.27976 7.79652 9.71063 7.45679 10.2542 7.21484C10.7977 6.96958 11.4109 6.84695 12.0937 6.84695C12.7831 6.84695 13.3913 6.96792 13.9183 7.20987C14.4486 7.45182 14.8662 7.78492 15.1711 8.20916C15.476 8.63009 15.6351 9.11399 15.6484 9.66087H14.1668Z" fill="white"/>
</svg>
