<svg width="24" height="25" viewBox="0 0 24 25" fill="none" xmlns="http://www.w3.org/2000/svg">
<path d="M18.5886 20.716H20.7846C20.9778 20.7192 21.1688 20.6733 21.3414 20.5823C21.5139 20.4913 21.6629 20.3579 21.7755 20.1934C21.8882 20.029 21.9612 19.8384 21.9882 19.638C22.0153 19.4375 21.9956 19.2332 21.9309 19.0425C21.371 17.7866 20.4845 16.7216 19.3731 15.9697C18.2618 15.2178 16.9707 14.8094 15.6479 14.7913M15.6479 11.822C16.1422 11.8221 16.6317 11.7202 17.0884 11.5221C17.5451 11.324 17.9601 11.0336 18.3097 10.6674C18.6593 10.3012 18.9366 9.86642 19.1258 9.38792C19.315 8.90942 19.4124 8.39655 19.4124 7.87861C19.4137 7.35977 19.3173 6.84574 19.1287 6.366C18.9402 5.88626 18.6631 5.45023 18.3134 5.0829C17.9636 4.71557 17.5482 4.42416 17.0908 4.22538C16.6334 4.0266 16.1431 3.92435 15.6479 3.92449M9.76753 11.9457C10.8992 11.9429 11.9835 11.4698 12.7826 10.6302C13.5818 9.79066 14.0304 8.65323 14.0302 7.46749C14.0302 6.28264 13.5809 5.14631 12.7814 4.3085C11.9818 3.47068 10.8973 3 9.7665 3C8.63571 3 7.55123 3.47068 6.75164 4.3085C5.95205 5.14631 5.50285 6.28264 5.50285 7.46749C5.50285 8.65323 5.95176 9.79055 6.75108 10.6299C7.55041 11.4693 8.63486 11.9421 9.7665 11.9447M14.5797 22C14.9415 21.9995 15.2961 21.894 15.6042 21.6954C15.9123 21.4967 16.1619 21.2125 16.3254 20.8743C16.4888 20.5361 16.5598 20.1571 16.5303 19.7792C16.5008 19.4014 16.3721 19.0395 16.1584 18.7336C15.4097 17.6923 14.4459 16.842 13.3392 16.2463C12.2324 15.6506 11.0114 15.325 9.76753 15.2939C8.52357 15.3252 7.30249 15.6509 6.19573 16.2468C5.08897 16.8427 4.12522 17.6932 3.37667 18.7347C3.1637 19.0406 3.03556 19.4022 3.0064 19.7797C2.97723 20.1571 3.04818 20.5356 3.21141 20.8735C3.37464 21.2113 3.6238 21.4953 3.93137 21.6941C4.23895 21.8929 4.59297 21.9988 4.95436 22H14.5797Z" stroke="white" stroke-width="1.5" stroke-linecap="round" stroke-linejoin="round"/>
</svg>
