<svg width="24" height="25" viewBox="0 0 24 25" fill="none" xmlns="http://www.w3.org/2000/svg">
<path fill-rule="evenodd" clip-rule="evenodd" d="M11 9.5V13.67C10.3325 13.9059 9.76994 14.3702 9.41167 14.9808C9.0534 15.5914 8.92254 16.309 9.04222 17.0068C9.16189 17.7046 9.5244 18.3375 10.0657 18.7939C10.6069 19.2502 11.2921 19.5005 12 19.5005C12.708 19.5005 13.3931 19.2502 13.9344 18.7939C14.4757 18.3375 14.8382 17.7046 14.9578 17.0068C15.0775 16.309 14.9467 15.5914 14.5884 14.9808C14.2301 14.3702 13.6675 13.9059 13 13.67V9.5H11ZM11 16.5C11 16.2348 11.1054 15.9804 11.2929 15.7929C11.4805 15.6054 11.7348 15.5 12 15.5C12.2652 15.5 12.5196 15.6054 12.7071 15.7929C12.8947 15.9804 13 16.2348 13 16.5C13 16.7652 12.8947 17.0196 12.7071 17.2071C12.5196 17.3946 12.2652 17.5 12 17.5C11.7348 17.5 11.4805 17.3946 11.2929 17.2071C11.1054 17.0196 11 16.7652 11 16.5Z" fill="white"/>
<path d="M12 5.5C13.8565 5.5 15.637 6.2375 16.9497 7.55025C18.2625 8.86301 19 10.6435 19 12.5V13.5H17V12.5C17 11.1739 16.4732 9.90215 15.5355 8.96447C14.5979 8.02678 13.3261 7.5 12 7.5C10.6739 7.5 9.40215 8.02678 8.46447 8.96447C7.52678 9.90215 7 11.1739 7 12.5V13.5H5V12.5C5 10.6435 5.7375 8.86301 7.05025 7.55025C8.36301 6.2375 10.1435 5.5 12 5.5Z" fill="white"/>
<path fill-rule="evenodd" clip-rule="evenodd" d="M12 23.5C18.075 23.5 23 18.575 23 12.5C23 6.425 18.075 1.5 12 1.5C5.925 1.5 1 6.425 1 12.5C1 18.575 5.925 23.5 12 23.5ZM12 21.5C13.1819 21.5 14.3522 21.2672 15.4442 20.8149C16.5361 20.3626 17.5282 19.6997 18.364 18.864C19.1997 18.0282 19.8626 17.0361 20.3149 15.9442C20.7672 14.8522 21 13.6819 21 12.5C21 11.3181 20.7672 10.1478 20.3149 9.05585C19.8626 7.96392 19.1997 6.97177 18.364 6.13604C17.5282 5.30031 16.5361 4.63738 15.4442 4.18508C14.3522 3.73279 13.1819 3.5 12 3.5C9.61305 3.5 7.32387 4.44821 5.63604 6.13604C3.94821 7.82387 3 10.1131 3 12.5C3 14.8869 3.94821 17.1761 5.63604 18.864C7.32387 20.5518 9.61305 21.5 12 21.5Z" fill="white"/>
</svg>
