<svg width="24" height="25" viewBox="0 0 24 25" fill="none" xmlns="http://www.w3.org/2000/svg">
<path d="M12 8.5V21.5M3 9.5C3 9.23478 3.10536 8.98043 3.29289 8.79289C3.48043 8.60536 3.73478 8.5 4 8.5H20C20.2652 8.5 20.5196 8.60536 20.7071 8.79289C20.8946 8.98043 21 9.23478 21 9.5V11.5C21 11.7652 20.8946 12.0196 20.7071 12.2071C20.5196 12.3946 20.2652 12.5 20 12.5H4C3.73478 12.5 3.48043 12.3946 3.29289 12.2071C3.10536 12.0196 3 11.7652 3 11.5V9.5Z" stroke="white" stroke-width="1.25" stroke-linecap="round" stroke-linejoin="round"/>
<path d="M19 12.5004V19.5004C19 20.0309 18.7893 20.5396 18.4142 20.9146C18.0391 21.2897 17.5304 21.5004 17 21.5004H7C6.46957 21.5004 5.96086 21.2897 5.58579 20.9146C5.21071 20.5396 5 20.0309 5 19.5004V12.5004M7.5 8.50044C6.83696 8.50044 6.20107 8.23705 5.73223 7.7682C5.26339 7.29936 5 6.66348 5 6.00044C5 5.3374 5.26339 4.70151 5.73223 4.23267C6.20107 3.76383 6.83696 3.50044 7.5 3.50044C8.46469 3.48363 9.41003 3.9517 10.2127 4.8436C11.0154 5.7355 11.6383 7.00984 12 8.50044C12.3617 7.00984 12.9846 5.7355 13.7873 4.8436C14.59 3.9517 15.5353 3.48363 16.5 3.50044C17.163 3.50044 17.7989 3.76383 18.2678 4.23267C18.7366 4.70151 19 5.3374 19 6.00044C19 6.66348 18.7366 7.29936 18.2678 7.7682C17.7989 8.23705 17.163 8.50044 16.5 8.50044" stroke="white" stroke-width="1.25" stroke-linecap="round" stroke-linejoin="round"/>
</svg>
