<svg width="29" height="27" viewBox="0 0 29 27" fill="none" xmlns="http://www.w3.org/2000/svg">
<path d="M11.4282 16.1419C11.7691 16.1419 12.0961 16.0065 12.3373 15.7653C12.5784 15.5242 12.7138 15.1972 12.7138 14.8562C12.7138 14.5153 12.5784 14.1883 12.3373 13.9472C12.0961 13.706 11.7691 13.5706 11.4282 13.5706C11.0872 13.5706 10.7602 13.706 10.5191 13.9472C10.2779 14.1883 10.1425 14.5153 10.1425 14.8562C10.1425 15.1972 10.2779 15.5242 10.5191 15.7653C10.7602 16.0065 11.0872 16.1419 11.4282 16.1419ZM15.7137 2.85678C15.7136 2.73323 15.6869 2.61116 15.6352 2.49892C15.5836 2.38668 15.5083 2.28693 15.4146 2.2065C15.3208 2.12607 15.2107 2.06687 15.0919 2.03295C14.9731 1.99902 14.8484 1.99118 14.7263 2.00996L2.72682 3.84416C2.52452 3.87528 2.34002 3.97776 2.20671 4.13308C2.0734 4.2884 2.00008 4.4863 2 4.69098V23.3073C2.00008 23.512 2.0734 23.7099 2.20671 23.8652C2.34002 24.0205 2.52452 24.123 2.72682 24.1541L14.7263 25.99C14.8484 26.0088 14.9731 26.001 15.0919 25.9671C15.2107 25.9331 15.3208 25.8739 15.4146 25.7935C15.5083 25.7131 15.5836 25.6133 15.6352 25.5011C15.6869 25.3888 15.7136 25.2668 15.7137 25.1432V13.9991H24.5796L22.8705 15.4974C22.7096 15.6496 22.614 15.8583 22.6036 16.0796C22.5932 16.3008 22.6688 16.5175 22.8147 16.6842C22.9606 16.8509 23.1653 16.9547 23.386 16.9737C23.6067 16.9928 23.8262 16.9257 23.9985 16.7864L27.42 13.7866C27.5118 13.7061 27.5853 13.607 27.6357 13.4959C27.6861 13.3847 27.7122 13.2641 27.7122 13.142C27.7122 13.02 27.6861 12.8994 27.6357 12.7882C27.5853 12.6771 27.5118 12.5779 27.42 12.4975L23.9985 9.49763C23.8275 9.34805 23.6042 9.27251 23.3775 9.28762C23.1509 9.30273 22.9395 9.40725 22.7899 9.5782C22.6404 9.74914 22.5648 9.9725 22.5799 10.1991C22.595 10.4258 22.6996 10.6371 22.8705 10.7867L24.5796 12.2849H15.7137V2.85678ZM13.9995 3.85445V24.1473L3.71421 22.5702V5.42638L13.9995 3.85445ZM18.285 24.2844H17.4279V15.7134H19.1421V23.4273C19.1421 23.6546 19.0518 23.8726 18.8911 24.0334C18.7303 24.1941 18.5123 24.2844 18.285 24.2844ZM17.4279 10.5707V3.71388H18.285C18.5123 3.71388 18.7303 3.80419 18.8911 3.96492C19.0518 4.12566 19.1421 4.34367 19.1421 4.57099V10.5707H17.4279Z" fill="white"/>
</svg>
