<svg width="24" height="25" viewBox="0 0 24 25" fill="none" xmlns="http://www.w3.org/2000/svg">
<path d="M4 10.5V19M8 10.5V19M11 19H5C4.20435 19 3.44129 19.3161 2.87868 19.8787C2.31607 20.4413 2 21.2044 2 22C2 22.1326 2.05268 22.2598 2.14645 22.3536C2.24021 22.4473 2.36739 22.5 2.5 22.5H11M21.5 15L14.5 22M2 9.07C2 7.873 2.482 7.14 3.48 6.584L7.59 4.297C9.743 3.1 10.82 2.5 12 2.5C13.18 2.5 14.257 3.1 16.41 4.297L20.52 6.584C21.517 7.14 22 7.873 22 9.07C22 9.394 22 9.557 21.965 9.69C21.779 10.39 21.144 10.501 20.531 10.501H3.469C2.856 10.501 2.222 10.391 2.035 9.69C2 9.556 2 9.394 2 9.07Z" stroke="white" stroke-width="1.5" stroke-linecap="round" stroke-linejoin="round"/>
<path d="M15.25 16.5C15.6642 16.5 16 16.1642 16 15.75C16 15.3358 15.6642 15 15.25 15C14.8358 15 14.5 15.3358 14.5 15.75C14.5 16.1642 14.8358 16.5 15.25 16.5Z" stroke="white" stroke-width="1.5" stroke-linecap="round" stroke-linejoin="round"/>
<path d="M20.75 22C21.1642 22 21.5 21.6642 21.5 21.25C21.5 20.8358 21.1642 20.5 20.75 20.5C20.3358 20.5 20 20.8358 20 21.25C20 21.6642 20.3358 22 20.75 22Z" stroke="white" stroke-width="1.5" stroke-linecap="round" stroke-linejoin="round"/>
</svg>
