<svg width="24" height="25" viewBox="0 0 24 25" fill="none" xmlns="http://www.w3.org/2000/svg">
<path d="M12 22.1C14.5461 22.1 16.9879 21.0886 18.7882 19.2882C20.5886 17.4879 21.6 15.0461 21.6 12.5C21.6 9.95392 20.5886 7.51212 18.7882 5.71178C16.9879 3.91143 14.5461 2.9 12 2.9C9.45392 2.9 7.01212 3.91143 5.21178 5.71178C3.41143 7.51212 2.4 9.95392 2.4 12.5C2.4 15.0461 3.41143 17.4879 5.21178 19.2882C7.01212 21.0886 9.45392 22.1 12 22.1ZM12 0.5C13.5759 0.5 15.1363 0.810389 16.5922 1.41345C18.0481 2.0165 19.371 2.90042 20.4853 4.01472C21.5996 5.12902 22.4835 6.45189 23.0866 7.9078C23.6896 9.36371 24 10.9241 24 12.5C24 15.6826 22.7357 18.7348 20.4853 20.9853C18.2348 23.2357 15.1826 24.5 12 24.5C5.364 24.5 0 19.1 0 12.5C0 9.3174 1.26428 6.26516 3.51472 4.01472C5.76516 1.76428 8.8174 0.5 12 0.5ZM12.6 6.5V12.8L18 16.004L17.1 17.48L10.8 13.7V6.5H12.6Z" fill="white"/>
</svg>
