<svg width="24" height="25" viewBox="0 0 24 25" fill="none" xmlns="http://www.w3.org/2000/svg">
<g clip-path="url(#clip0_3525_25084)">
<path d="M13.0088 22.9521V23.6172C13.0087 23.896 12.9108 24.1371 12.7168 24.332C12.5218 24.5269 12.2806 24.6249 12.001 24.625C11.722 24.625 11.4812 24.527 11.2861 24.333H11.2852C11.0903 24.1381 10.9923 23.8968 10.9922 23.6172V22.9521H13.0088ZM12.001 11.2695C13.0713 11.2696 13.9918 11.6531 14.7559 12.417C15.52 13.1812 15.9053 14.1022 15.9062 15.1729C15.9062 15.7974 15.7693 16.3589 15.4932 16.8535C15.2268 17.3312 14.9223 17.8041 14.5801 18.2725C14.2432 18.7338 13.9231 19.2073 13.6201 19.6914C13.3254 20.161 13.1373 20.7047 13.0576 21.3252L13.043 21.4346H10.959L10.9453 21.3252C10.8648 20.7047 10.6756 20.161 10.3809 19.6914C10.078 19.2075 9.75849 18.7386 9.42188 18.2861C9.07915 17.8257 8.77439 17.3518 8.50781 16.8643C8.23302 16.3616 8.09668 15.7966 8.09668 15.1729C8.09674 14.1023 8.47985 13.1812 9.24316 12.417C10.0082 11.6528 10.9303 11.2695 12.001 11.2695ZM11.9766 0.375C12.1353 0.375742 12.2781 0.415777 12.4004 0.496094L12.5166 0.589844V0.59082L15.5635 3.66309C15.6833 3.7829 15.7736 3.91093 15.8271 4.04688C15.8794 4.17953 15.9042 4.32229 15.9033 4.47363C15.9024 4.62401 15.8772 4.76568 15.8271 4.89746C15.7752 5.03445 15.685 5.16252 15.5635 5.2832L15.5645 5.28418L12.5166 8.33105V8.33203C12.3775 8.47027 12.2207 8.55438 12.0488 8.57129L11.9746 8.5752C11.7737 8.57297 11.5932 8.48181 11.4355 8.32324V8.32227C11.2777 8.16406 11.1885 7.98227 11.1885 7.7793C11.1886 7.62677 11.2391 7.48651 11.3311 7.35938L11.4365 7.23633L13.4365 5.23633H12.001C9.38707 5.23633 7.16147 6.15676 5.31738 8C3.47344 9.84312 2.55296 12.0681 2.55371 14.6826C2.55371 15.4973 2.65222 16.2899 2.84961 17.0596L2.94043 17.3877L3.04199 17.7119C3.29053 18.4598 3.6215 19.1502 4.03516 19.7832V19.7842C4.13694 19.9408 4.18373 20.1079 4.16504 20.2822C4.1464 20.4551 4.06944 20.6073 3.94141 20.7354C3.79004 20.8867 3.61385 20.9711 3.41699 20.9795L3.33105 20.9785C3.0996 20.9621 2.91088 20.8522 2.77148 20.6592L2.76855 20.6543C2.20352 19.7998 1.77141 18.8692 1.47363 17.8623C1.17564 16.8546 1.02734 15.794 1.02734 14.6826C1.02744 11.6231 2.09157 9.02662 4.21777 6.90039C6.34411 4.77406 8.94122 3.70996 12.001 3.70996H13.499L11.4365 1.66992V1.66895C11.2922 1.52458 11.2208 1.3423 11.2207 1.13086C11.2207 0.919365 11.2915 0.735969 11.4355 0.59082C11.5801 0.445185 11.764 0.374072 11.9766 0.375ZM19.4805 6.95215C19.6935 6.9417 19.8748 7.02501 20.0166 7.19043H20.0176C20.821 8.05035 21.4742 9.02132 21.9775 10.1025L22.1846 10.5732L22.3691 11.0557C22.7721 12.1923 22.9736 13.4015 22.9736 14.6826C22.9736 15.7932 22.8253 16.8538 22.5273 17.8623C22.2296 18.8692 21.7975 19.7998 21.2324 20.6543L21.2295 20.6592C21.0901 20.8522 20.9014 20.9621 20.6699 20.9785C20.4371 20.995 20.2327 20.9093 20.0605 20.7354V20.7344C19.9322 20.6066 19.8546 20.455 19.8359 20.2822C19.8172 20.1079 19.8641 19.9408 19.9658 19.7842V19.7832C20.4386 19.0597 20.8035 18.2613 21.0605 17.3877C21.3174 16.5145 21.4464 15.6128 21.4473 14.6826C21.4472 13.4465 21.2263 12.2838 20.7852 11.1943C20.3431 10.1028 19.73 9.12635 18.9463 8.26367L18.9424 8.25879C18.81 8.09709 18.7319 7.92098 18.7188 7.73242C18.7045 7.52916 18.7909 7.34629 18.9512 7.18848C19.0969 7.04174 19.2755 6.96231 19.4805 6.95215Z" fill="white" stroke="white" stroke-width="0.25"/>
</g>
<defs>
<clipPath id="clip0_3525_25084">
<rect width="24" height="24" fill="white" transform="translate(0 0.5)"/>
</clipPath>
</defs>
</svg>
