<svg width="24" height="25" viewBox="0 0 24 25" fill="none" xmlns="http://www.w3.org/2000/svg">
<path d="M15.7498 18.4998H8.24984C7.85202 18.4998 7.47048 18.6579 7.18918 18.9392C6.90788 19.2205 6.74984 19.602 6.74984 19.9998V21.4998C6.74984 21.8977 6.90788 22.2792 7.18918 22.5605C7.47048 22.8418 7.85202 22.9998 8.24984 22.9998H15.7498C16.1477 22.9998 16.5292 22.8418 16.8105 22.5605C17.0918 22.2792 17.2498 21.8977 17.2498 21.4998V19.9998C17.2498 19.602 17.0918 19.2205 16.8105 18.9392C16.5292 18.6579 16.1477 18.4998 15.7498 18.4998ZM15.7498 21.4998H8.24984V19.9998H15.7498V21.4998ZM21.5301 11.2196L12.5301 2.21959C12.3894 2.07899 12.1987 2 11.9998 2C11.801 2 11.6102 2.07899 11.4696 2.21959L2.46959 11.2196C2.36473 11.3245 2.29333 11.4581 2.2644 11.6036C2.23548 11.749 2.25033 11.8998 2.30708 12.0368C2.36383 12.1739 2.45994 12.291 2.58325 12.3734C2.70655 12.4558 2.85153 12.4998 2.99984 12.4998H6.74984V15.4998C6.74984 15.8977 6.90788 16.2792 7.18918 16.5605C7.47048 16.8418 7.85202 16.9998 8.24984 16.9998H15.7498C16.1475 16.9992 16.5287 16.841 16.8098 16.5598C17.091 16.2787 17.2492 15.8975 17.2498 15.4998V12.4998H20.9998C21.1482 12.4998 21.2931 12.4558 21.4164 12.3734C21.5397 12.291 21.6358 12.1739 21.6926 12.0368C21.7493 11.8998 21.7642 11.749 21.7353 11.6036C21.7064 11.4581 21.6349 11.3245 21.5301 11.2196ZM15.7498 10.9998V15.4998H8.24984V10.9998H4.81034L11.9998 3.81034L19.1893 10.9998H15.7498Z" fill="white"/>
</svg>
